<mxfile host="app.diagrams.net" agent="Mozilla/5.0 (Windows NT 10.0; Win64; x64) AppleWebKit/537.36 (KHTML, like Gecko) Chrome/128.0.0.0 Safari/537.36" version="24.7.15">
  <diagram name="Página-1" id="4KCFtpf-UhctlSOF_91j">
    <mxGraphModel dx="1434" dy="772" grid="1" gridSize="10" guides="1" tooltips="1" connect="1" arrows="1" fold="1" page="1" pageScale="1" pageWidth="827" pageHeight="1169" math="0" shadow="0">
      <root>
        <mxCell id="0" />
        <mxCell id="1" parent="0" />
        <mxCell id="RY6tm27gDqo1p2uEolZU-2" value="" style="swimlane;startSize=0;" vertex="1" parent="1">
          <mxGeometry x="100" y="10" width="610" height="710" as="geometry" />
        </mxCell>
        <mxCell id="RY6tm27gDqo1p2uEolZU-15" style="edgeStyle=orthogonalEdgeStyle;rounded=0;orthogonalLoop=1;jettySize=auto;html=1;exitX=1;exitY=0.5;exitDx=0;exitDy=0;entryX=0.5;entryY=0;entryDx=0;entryDy=0;dashed=1;" edge="1" parent="RY6tm27gDqo1p2uEolZU-2" source="RY6tm27gDqo1p2uEolZU-4" target="RY6tm27gDqo1p2uEolZU-13">
          <mxGeometry relative="1" as="geometry" />
        </mxCell>
        <mxCell id="RY6tm27gDqo1p2uEolZU-16" value="extend" style="edgeLabel;html=1;align=center;verticalAlign=middle;resizable=0;points=[];" vertex="1" connectable="0" parent="RY6tm27gDqo1p2uEolZU-15">
          <mxGeometry x="-0.2" y="-2" relative="1" as="geometry">
            <mxPoint as="offset" />
          </mxGeometry>
        </mxCell>
        <mxCell id="RY6tm27gDqo1p2uEolZU-4" value="Registrar informações das salas" style="ellipse;whiteSpace=wrap;html=1;" vertex="1" parent="RY6tm27gDqo1p2uEolZU-2">
          <mxGeometry x="60" y="190" width="120" height="80" as="geometry" />
        </mxCell>
        <mxCell id="RY6tm27gDqo1p2uEolZU-14" style="edgeStyle=orthogonalEdgeStyle;rounded=0;orthogonalLoop=1;jettySize=auto;html=1;exitX=1;exitY=0.5;exitDx=0;exitDy=0;entryX=0.5;entryY=1;entryDx=0;entryDy=0;dashed=1;" edge="1" parent="RY6tm27gDqo1p2uEolZU-2" source="RY6tm27gDqo1p2uEolZU-5" target="RY6tm27gDqo1p2uEolZU-13">
          <mxGeometry relative="1" as="geometry" />
        </mxCell>
        <mxCell id="RY6tm27gDqo1p2uEolZU-17" value="extend" style="edgeLabel;html=1;align=center;verticalAlign=middle;resizable=0;points=[];" vertex="1" connectable="0" parent="RY6tm27gDqo1p2uEolZU-14">
          <mxGeometry x="-0.2857" y="3" relative="1" as="geometry">
            <mxPoint as="offset" />
          </mxGeometry>
        </mxCell>
        <mxCell id="RY6tm27gDqo1p2uEolZU-5" value="Registrar informações dos filmes" style="ellipse;whiteSpace=wrap;html=1;" vertex="1" parent="RY6tm27gDqo1p2uEolZU-2">
          <mxGeometry x="60" y="440" width="120" height="80" as="geometry" />
        </mxCell>
        <mxCell id="RY6tm27gDqo1p2uEolZU-9" value="Comprar ingresso" style="ellipse;whiteSpace=wrap;html=1;" vertex="1" parent="RY6tm27gDqo1p2uEolZU-2">
          <mxGeometry x="430" y="315" width="120" height="80" as="geometry" />
        </mxCell>
        <mxCell id="RY6tm27gDqo1p2uEolZU-13" value="Sessões" style="ellipse;whiteSpace=wrap;html=1;" vertex="1" parent="RY6tm27gDqo1p2uEolZU-2">
          <mxGeometry x="245" y="315" width="120" height="80" as="geometry" />
        </mxCell>
        <mxCell id="RY6tm27gDqo1p2uEolZU-18" value="Gerenciar ingressos e capacidade" style="ellipse;whiteSpace=wrap;html=1;" vertex="1" parent="RY6tm27gDqo1p2uEolZU-2">
          <mxGeometry x="60" y="315" width="120" height="80" as="geometry" />
        </mxCell>
        <mxCell id="RY6tm27gDqo1p2uEolZU-22" value="" style="endArrow=none;html=1;rounded=0;exitX=1;exitY=0.5;exitDx=0;exitDy=0;entryX=0;entryY=0.5;entryDx=0;entryDy=0;" edge="1" parent="RY6tm27gDqo1p2uEolZU-2" source="RY6tm27gDqo1p2uEolZU-18" target="RY6tm27gDqo1p2uEolZU-13">
          <mxGeometry width="50" height="50" relative="1" as="geometry">
            <mxPoint x="290" y="410" as="sourcePoint" />
            <mxPoint x="340" y="360" as="targetPoint" />
          </mxGeometry>
        </mxCell>
        <mxCell id="RY6tm27gDqo1p2uEolZU-23" value="" style="endArrow=classic;html=1;rounded=0;entryX=1;entryY=0.5;entryDx=0;entryDy=0;endFill=1;exitX=0;exitY=0.5;exitDx=0;exitDy=0;" edge="1" parent="RY6tm27gDqo1p2uEolZU-2" source="RY6tm27gDqo1p2uEolZU-9" target="RY6tm27gDqo1p2uEolZU-13">
          <mxGeometry width="50" height="50" relative="1" as="geometry">
            <mxPoint x="290" y="410" as="sourcePoint" />
            <mxPoint x="340" y="360" as="targetPoint" />
            <Array as="points" />
          </mxGeometry>
        </mxCell>
        <mxCell id="RY6tm27gDqo1p2uEolZU-24" value="Sistema de gerenciamento de cinema" style="text;html=1;align=center;verticalAlign=middle;resizable=0;points=[];autosize=1;strokeColor=none;fillColor=none;" vertex="1" parent="RY6tm27gDqo1p2uEolZU-2">
          <mxGeometry x="195" y="20" width="220" height="30" as="geometry" />
        </mxCell>
        <mxCell id="RY6tm27gDqo1p2uEolZU-3" value="Funcionário" style="shape=umlActor;verticalLabelPosition=bottom;verticalAlign=top;html=1;outlineConnect=0;" vertex="1" parent="1">
          <mxGeometry x="30" y="335" width="30" height="60" as="geometry" />
        </mxCell>
        <mxCell id="RY6tm27gDqo1p2uEolZU-6" value="" style="endArrow=none;html=1;rounded=0;exitX=0.5;exitY=0.5;exitDx=0;exitDy=0;exitPerimeter=0;entryX=0;entryY=0.5;entryDx=0;entryDy=0;" edge="1" parent="1" source="RY6tm27gDqo1p2uEolZU-3" target="RY6tm27gDqo1p2uEolZU-4">
          <mxGeometry width="50" height="50" relative="1" as="geometry">
            <mxPoint x="390" y="420" as="sourcePoint" />
            <mxPoint x="440" y="370" as="targetPoint" />
          </mxGeometry>
        </mxCell>
        <mxCell id="RY6tm27gDqo1p2uEolZU-7" value="" style="endArrow=none;html=1;rounded=0;exitX=0.5;exitY=0.5;exitDx=0;exitDy=0;exitPerimeter=0;entryX=0;entryY=0.5;entryDx=0;entryDy=0;" edge="1" parent="1" source="RY6tm27gDqo1p2uEolZU-3" target="RY6tm27gDqo1p2uEolZU-5">
          <mxGeometry width="50" height="50" relative="1" as="geometry">
            <mxPoint x="390" y="420" as="sourcePoint" />
            <mxPoint x="440" y="370" as="targetPoint" />
          </mxGeometry>
        </mxCell>
        <mxCell id="RY6tm27gDqo1p2uEolZU-10" style="edgeStyle=orthogonalEdgeStyle;rounded=0;orthogonalLoop=1;jettySize=auto;html=1;exitX=0.5;exitY=0.5;exitDx=0;exitDy=0;exitPerimeter=0;entryX=1;entryY=0.5;entryDx=0;entryDy=0;endArrow=none;endFill=0;" edge="1" parent="1" source="RY6tm27gDqo1p2uEolZU-8" target="RY6tm27gDqo1p2uEolZU-9">
          <mxGeometry relative="1" as="geometry" />
        </mxCell>
        <mxCell id="RY6tm27gDqo1p2uEolZU-8" value="Cliente" style="shape=umlActor;verticalLabelPosition=bottom;verticalAlign=top;html=1;outlineConnect=0;" vertex="1" parent="1">
          <mxGeometry x="730" y="335" width="30" height="60" as="geometry" />
        </mxCell>
        <mxCell id="RY6tm27gDqo1p2uEolZU-19" value="" style="endArrow=none;html=1;rounded=0;exitX=0.5;exitY=0.5;exitDx=0;exitDy=0;exitPerimeter=0;entryX=0;entryY=0.5;entryDx=0;entryDy=0;" edge="1" parent="1" source="RY6tm27gDqo1p2uEolZU-3" target="RY6tm27gDqo1p2uEolZU-18">
          <mxGeometry width="50" height="50" relative="1" as="geometry">
            <mxPoint x="390" y="420" as="sourcePoint" />
            <mxPoint x="440" y="370" as="targetPoint" />
          </mxGeometry>
        </mxCell>
      </root>
    </mxGraphModel>
  </diagram>
</mxfile>
